<svg width="50" height="50" viewBox="0 0 50 50" fill="none" xmlns="http://www.w3.org/2000/svg">
<rect width="50" height="50" rx="10" fill="#1F2328"/>
<path d="M23.3693 24.3881C23.4886 24.7417 23.5947 25.0816 23.6742 25.3671H20.3068C20.5057 24.796 20.7045 24.157 20.8902 23.4635C21.1023 22.7836 21.3011 22.1037 21.5 21.4511C21.6856 20.8664 21.8314 20.2817 21.9508 19.697H21.9773C22.0701 20.0233 22.1629 20.3768 22.2689 20.7576C22.375 21.1519 22.4943 21.5462 22.6269 21.9678C22.7595 22.3893 22.8788 22.7972 23.0114 23.2187C23.1307 23.6267 23.25 24.021 23.3693 24.3881Z" fill="white"/>
<path d="M35.2746 9.09091H14.7254C11.6098 9.09091 9.09091 11.6744 9.09091 14.8699V35.1302C9.09091 38.3256 11.6098 40.9091 14.7254 40.9091H35.2746C38.3902 40.9091 40.9091 38.3256 40.9091 35.1302V14.8699C40.9091 11.6744 38.3902 9.09091 35.2746 9.09091ZM28.5398 31.5132H25.7689C25.6761 31.5268 25.5833 31.4588 25.5568 31.3636L24.4697 28.1274H19.5379L18.5303 31.3228C18.5038 31.4452 18.3977 31.5268 18.2784 31.5132H15.786C15.6402 31.5132 15.6004 31.4316 15.6402 31.2685L19.9091 18.6636C19.9489 18.5276 19.9886 18.378 20.0417 18.2148C20.0947 17.9293 20.1212 17.6302 20.1212 17.331C20.108 17.263 20.161 17.195 20.2273 17.1814H23.661C23.767 17.1814 23.8201 17.2222 23.8333 17.2902L28.6723 31.2957C28.7121 31.4452 28.6723 31.5132 28.5398 31.5132ZM33.1136 31.3636C33.1136 31.5132 33.0606 31.5812 32.9413 31.5812H30.3428C30.2102 31.5812 30.1439 31.4996 30.1439 31.3636V20.8936C30.1439 20.7576 30.197 20.7032 30.3163 20.7032H32.9413C33.0606 20.7032 33.1136 20.7712 33.1136 20.8936V31.3636ZM32.8352 19.0851C32.5303 19.4114 32.0795 19.5882 31.6288 19.561C31.1913 19.5746 30.767 19.3978 30.4489 19.0851C30.1439 18.7451 29.9848 18.2964 29.9981 17.8341C29.9848 17.3718 30.1572 16.9367 30.4754 16.6239C30.7936 16.3112 31.2178 16.148 31.6553 16.148C32.1723 16.148 32.5701 16.3112 32.8617 16.6239C33.1534 16.9503 33.3125 17.3854 33.2992 17.8341C33.3125 18.2964 33.1534 18.7451 32.8352 19.0851Z" fill="white"/>
</svg>
