<svg width="50" height="50" viewBox="0 0 50 50" fill="none" xmlns="http://www.w3.org/2000/svg">
<rect width="50" height="50" rx="10" fill="#1F2328"/>
<path d="M23.0777 20.9072C23.2898 21.2743 23.3958 21.6958 23.3826 22.1173C23.3826 22.7156 23.25 23.1779 22.9716 23.5179C22.6799 23.8578 22.3087 24.1162 21.8845 24.2385C21.3939 24.4017 20.8769 24.4833 20.3599 24.4833H19.6572C19.4981 24.4833 19.3258 24.4697 19.1402 24.4561V19.8873C19.233 19.8737 19.4186 19.8601 19.6837 19.8737C19.9356 19.8601 20.2405 19.8601 20.5852 19.8601C21.1288 19.8465 21.6591 19.9281 22.1496 20.1321C22.5341 20.2817 22.8523 20.5536 23.0777 20.9072Z" fill="white"/>
<path d="M35.2746 9.09091H14.7254C11.6099 9.09091 9.09091 11.6744 9.09091 14.8699V35.1302C9.09091 38.3256 11.6099 40.9091 14.7254 40.9091H35.2746C38.3902 40.9091 40.9091 38.3256 40.9091 35.1302V14.8699C40.9091 11.6744 38.3902 9.09091 35.2746 9.09091ZM25.4773 24.932C24.947 25.6935 24.2045 26.2646 23.3428 26.5909C22.4413 26.9308 21.447 27.0532 20.3599 27.0532C20.0417 27.0532 19.8295 27.0532 19.697 27.0396C19.5644 27.026 19.3788 27.026 19.1269 27.026V31.3908C19.1402 31.486 19.0739 31.5676 18.9811 31.5812H16.4091C16.303 31.5812 16.25 31.5268 16.25 31.4044V17.4126C16.25 17.3174 16.2898 17.263 16.3826 17.263C16.608 17.263 16.8201 17.263 17.125 17.2494C17.4432 17.2358 17.7746 17.2358 18.1326 17.2222C18.4905 17.2086 18.875 17.2086 19.286 17.195C19.697 17.1814 20.0947 17.1814 20.4924 17.1814C21.5795 17.1814 22.4811 17.3174 23.2235 17.603C23.8864 17.8341 24.4962 18.2148 25 18.718C25.4242 19.1531 25.7557 19.6834 25.9678 20.2681C26.1667 20.8392 26.2727 21.4239 26.2727 22.0357C26.2727 23.2051 26.0076 24.1706 25.4773 24.932ZM34.8769 30.2214C34.5057 30.7653 33.9886 31.1869 33.3921 31.4316C32.7424 31.7172 31.947 31.8667 30.9924 31.8667C30.3826 31.8667 29.786 31.8124 29.1894 31.69C28.7254 31.6084 28.2614 31.4588 27.8371 31.2549C27.7443 31.2005 27.678 31.1053 27.6913 30.9965V28.6305C27.6913 28.5897 27.7045 28.5354 27.7443 28.5082C27.7841 28.481 27.8239 28.4946 27.8636 28.5218C28.3807 28.8345 28.9242 29.0521 29.5076 29.188C30.0114 29.324 30.5417 29.392 31.072 29.392C31.6023 29.392 31.9337 29.324 32.1724 29.2016C32.3845 29.1065 32.5303 28.8753 32.5303 28.6305C32.5303 28.4402 32.4242 28.2634 32.2121 28.0866C32 27.9099 31.5625 27.7059 30.9129 27.4476C30.2367 27.2028 29.6136 26.8765 29.0303 26.4685C28.6193 26.1694 28.2746 25.7751 28.0227 25.3127C27.8106 24.8776 27.7045 24.4017 27.7178 23.9258C27.7178 23.3411 27.8769 22.7836 28.1686 22.2805C28.5 21.7366 28.9905 21.3015 29.5606 21.0295C30.1837 20.7032 30.9659 20.5536 31.9072 20.5536C32.4508 20.5536 33.0076 20.5944 33.5511 20.676C33.9489 20.7304 34.3333 20.8392 34.6913 20.9887C34.7443 21.0023 34.7974 21.0567 34.8239 21.1111C34.8371 21.1655 34.8504 21.2199 34.8504 21.2743V23.4907C34.8504 23.5451 34.8239 23.5995 34.7841 23.6267C34.6648 23.6538 34.5985 23.6538 34.5455 23.6267C34.1477 23.4091 33.7235 23.2595 33.2727 23.1643C32.7822 23.0556 32.2917 22.9876 31.7879 22.9876C31.5227 22.974 31.2443 23.0148 30.9924 23.0828C30.8201 23.1235 30.6742 23.2187 30.5814 23.3547C30.5152 23.4635 30.4754 23.5995 30.4754 23.7218C30.4754 23.8442 30.5284 23.9666 30.608 24.0754C30.7273 24.2249 30.8864 24.3473 31.0587 24.4425C31.3636 24.6057 31.6818 24.7552 32 24.8912C32.7159 25.136 33.4053 25.4759 34.0417 25.8838C34.4792 26.1694 34.8371 26.5501 35.089 27.0124C35.3011 27.4476 35.4072 27.9235 35.3939 28.413C35.4072 29.0521 35.2216 29.6911 34.8769 30.2214Z" fill="white"/>
</svg>
