<svg width="50" height="50" viewBox="0 0 50 50" fill="none" xmlns="http://www.w3.org/2000/svg">
<rect width="50" height="50" rx="10" fill="#1F2328"/>
<path d="M40.9091 33.7341C40.446 33.9092 39.9348 33.9089 39.472 33.733C39.0092 33.5572 38.6267 33.218 38.3968 32.7795L33.8229 26.4544L33.16 25.5701L27.853 32.7875C27.6369 33.2076 27.2752 33.5345 26.8355 33.7073C26.3958 33.88 25.9083 33.8867 25.464 33.7261L32.3023 24.5519L25.9413 16.2646C26.3987 16.0998 26.8989 16.0976 27.3577 16.2584C27.8165 16.4192 28.2059 16.7332 28.4602 17.1475L33.2011 23.5509L37.9686 17.1741C38.1864 16.7615 38.5482 16.4433 38.9852 16.28C39.4222 16.1167 39.904 16.1197 40.339 16.2884L37.8705 19.5644L34.5269 23.9169C34.434 23.9997 34.3597 24.1012 34.3089 24.2148C34.258 24.3283 34.2317 24.4513 34.2317 24.5758C34.2317 24.7002 34.258 24.8232 34.3089 24.9368C34.3597 25.0503 34.434 25.1518 34.5269 25.2347L40.8958 33.7354L40.9091 33.7341ZM9.09356 24.4379L9.65038 21.6869C11.1803 16.2474 17.4167 13.9843 21.7068 17.3517C24.2191 19.3258 24.8462 22.1205 24.7229 25.2705H10.5705C10.3411 30.8956 14.4006 34.2922 19.5909 32.5568C20.4323 32.254 21.1855 31.7471 21.7829 31.0817C22.3803 30.4162 22.8033 29.613 23.014 28.7439C23.2884 27.861 23.7405 27.7099 24.5705 27.9644C24.4322 29.0414 24.0514 30.0731 23.4569 30.9817C22.8624 31.8904 22.0696 32.6524 21.1381 33.2104C19.5994 34.052 17.8341 34.3856 16.0944 34.1635C14.3547 33.9413 12.7299 33.1748 11.4521 31.9735C10.1887 30.5515 9.4251 28.7552 9.27784 26.8587C9.27784 26.5472 9.17178 26.2555 9.10019 25.9758C9.09374 25.4636 9.09065 24.9514 9.09091 24.4392L9.09356 24.4379ZM10.5877 24.0587H23.3866C23.307 19.9807 20.7337 17.0879 17.3013 17.0614C13.4805 17.0083 10.7468 19.8375 10.5784 24.0402L10.5877 24.0587Z" fill="white"/>
</svg>
