<svg width="50" height="50" viewBox="0 0 50 50" fill="none" xmlns="http://www.w3.org/2000/svg">
<rect width="50" height="50" rx="10" fill="#1F2328"/>
<path d="M30.1068 20.9975H24.0242V9.09091H30.1068C33.3894 9.09091 36.0595 11.761 36.0595 15.0436C36.0595 18.3261 33.3894 20.9975 30.1068 20.9975ZM25.9744 19.0474H30.1068C32.3142 19.0474 34.1093 17.251 34.1093 15.0449C34.1093 12.8388 32.3129 11.0424 30.1068 11.0424H25.9744V19.0474ZM25.9744 20.9975H19.8932C16.6106 20.9975 13.9405 18.3275 13.9405 15.0449C13.9405 11.7623 16.6106 9.09091 19.8932 9.09091H25.9758V20.9975H25.9744ZM19.8932 11.0411C17.6858 11.0411 15.8907 12.8375 15.8907 15.0436C15.8907 17.2496 17.6858 19.0474 19.8932 19.0474H24.0256V11.0411H19.8932ZM25.9744 30.9527H19.8932C16.6106 30.9527 13.9405 28.2826 13.9405 25C13.9405 21.7174 16.6106 19.0474 19.8932 19.0474H25.9758V30.9527H25.9744ZM19.8932 20.9975C17.6858 20.9975 15.8907 22.7939 15.8907 25C15.8907 27.2061 17.6871 29.0025 19.8932 29.0025H24.0256V20.9975H19.8932ZM19.925 40.9091C16.6252 40.9091 13.9392 38.239 13.9392 34.9564C13.9392 31.6739 16.6093 29.0038 19.8919 29.0038H25.9744V34.8915C25.9744 38.2099 23.2606 40.9091 19.925 40.9091ZM19.8932 30.9527C18.8321 30.9541 17.8149 31.3762 17.0646 32.1265C16.3143 32.8768 15.8921 33.894 15.8907 34.9551C15.8907 37.1625 17.7004 38.9576 19.9263 38.9576C22.1867 38.9576 24.0269 37.1333 24.0269 34.8902V30.9527H19.8932ZM30.1068 30.9527H29.9769C26.6943 30.9527 24.0242 28.2826 24.0242 25C24.0242 21.7174 26.6943 19.0474 29.9769 19.0474H30.1068C33.3894 19.0474 36.0595 21.7174 36.0595 25C36.0595 28.2826 33.3894 30.9527 30.1068 30.9527ZM29.9782 20.9975C27.7708 20.9975 25.9758 22.7939 25.9758 25C25.9758 27.2061 27.7722 29.0025 29.9782 29.0025H30.1081C32.3155 29.0025 34.1106 27.2061 34.1106 25C34.1106 22.7939 32.3129 20.9975 30.1068 20.9975H29.9782Z" fill="white"/>
</svg>
