<svg width="50" height="50" viewBox="0 0 50 50" fill="none" xmlns="http://www.w3.org/2000/svg">
<rect width="50" height="50" rx="10" fill="#1F2328"/>
<path d="M40.3075 23.5819L26.4148 9.69049C25.614 8.89105 24.3174 8.89105 23.514 9.69049L20.6357 12.574L24.2949 16.2332C25.15 15.9481 26.1231 16.1404 26.7992 16.8178C27.4833 17.5006 27.6716 18.4857 27.3799 19.3368L30.9038 22.8634C31.7589 22.5677 32.7427 22.7599 33.4228 23.4401C34.3787 24.3946 34.3787 25.9378 33.4228 26.8924C32.4696 27.8456 30.929 27.8456 29.9758 26.8924C29.2612 26.1751 29.0822 25.1198 29.4402 24.2461L26.1403 20.9635V29.6142C26.3737 29.7282 26.5937 29.8833 26.7873 30.0756C27.7326 31.0314 27.7326 32.572 26.7873 33.5226C25.8341 34.4784 24.2829 34.4784 23.3284 33.5226C22.3751 32.5693 22.3751 31.0314 23.3284 30.0782C23.5697 29.8396 23.8414 29.6593 24.1305 29.5399V20.8044C23.8428 20.6838 23.5683 20.5101 23.335 20.2728C22.6125 19.5503 22.4388 18.4936 22.81 17.6093L19.2145 13.9966L9.68751 23.517C8.89205 24.3191 8.89205 25.617 9.68751 26.4191L23.5816 40.3092C24.3824 41.1099 25.679 41.1099 26.4797 40.3092L40.3075 26.4814C41.1096 25.6819 41.1096 24.384 40.3075 23.5819Z" fill="white"/>
</svg>
