<svg width="50" height="50" viewBox="0 0 50 50" fill="none" xmlns="http://www.w3.org/2000/svg">
<rect width="50" height="50" rx="10" fill="#1F2328"/>
<path d="M9.09091 9.09091H40.9091V40.9091H9.09091V9.09091ZM38.3027 33.3205C38.0706 31.8687 37.1254 30.6491 34.3214 29.5116C33.3456 29.0542 32.2612 28.736 31.939 28.0002C31.8184 27.5627 31.7998 27.3241 31.878 27.0655C32.0769 26.2091 33.0911 25.9519 33.8866 26.1905C34.4036 26.3496 34.8809 26.7473 35.1805 27.3837C36.5513 26.4875 36.5513 26.4875 37.5072 25.8922C37.1492 25.3354 36.9716 25.0955 36.7303 24.8581C35.8951 23.9235 34.7828 23.4462 32.9731 23.4873L32.0385 23.6053C31.1422 23.8241 30.2885 24.3013 29.7714 24.9377C28.26 26.6492 28.6962 29.6322 30.5258 30.8652C32.3354 32.2174 34.9816 32.5144 35.3197 33.7884C35.6379 35.3396 34.1663 35.8367 32.7133 35.6578C31.6381 35.4191 31.0428 34.8809 30.3866 33.8866L27.9604 35.2799C28.2388 35.9163 28.557 36.1934 29.0343 36.7502C31.3411 39.0782 37.1081 38.9589 38.1436 35.4191C38.182 35.2998 38.4617 34.4845 38.2417 33.2316L38.3027 33.3205ZM26.3934 23.7153H23.4131C23.4131 26.2847 23.4011 28.8381 23.4011 31.4114C23.4011 33.0447 23.4847 34.5441 23.2182 35.0055C22.7807 35.9189 21.6538 35.8023 21.142 35.6419C20.617 35.382 20.3506 35.0241 20.0417 34.5083C19.9581 34.3691 19.8958 34.2485 19.8733 34.2485L17.4538 35.74C17.8581 36.5752 18.4481 37.2938 19.2091 37.7511C20.3426 38.4273 21.8659 38.646 23.4608 38.2881C24.4989 37.9884 25.3938 37.372 25.8617 36.4174C26.5379 35.1845 26.3947 33.6731 26.3881 31.9814C26.404 29.2583 26.3881 26.5339 26.3881 23.7896L26.3934 23.7153Z" fill="white"/>
</svg>
