<svg width="50" height="50" viewBox="0 0 50 50" fill="none" xmlns="http://www.w3.org/2000/svg">
<rect width="50" height="50" rx="10" fill="#1F2328"/>
<path d="M31.8847 21.7585C30.2089 14.3608 26.2475 11.9294 25.822 11C25.4508 10.4777 25.1193 9.73523 24.8475 9.09091C24.7998 9.74716 24.7746 9.99906 24.1542 10.6606C23.1957 11.411 18.2705 15.542 17.8701 23.9447C17.4962 31.7826 23.5311 36.4532 24.3504 37.0485L24.4432 37.1148C24.6138 38.3766 24.7597 39.6416 24.8807 40.9091H25.5184C25.6695 39.5409 25.8949 38.1833 26.1945 36.839C26.7474 36.4466 26.9953 36.2252 27.3214 35.9203C28.8659 34.4915 30.0933 32.7545 30.9243 30.8216C31.7553 28.8887 32.1715 26.8029 32.1458 24.6991C32.1591 23.6199 32.0093 22.4956 31.8847 21.7585ZM24.8104 32.6231C24.8104 32.6231 24.8104 21.6313 25.175 21.6326C25.4574 21.6326 25.8246 35.8116 25.8246 35.8116C25.3195 35.7519 24.8104 33.4782 24.8104 32.6231Z" fill="white"/>
</svg>
