<svg width="50" height="50" viewBox="0 0 50 50" fill="none" xmlns="http://www.w3.org/2000/svg">
<rect width="50" height="50" rx="10" fill="#1F2328"/>
<path d="M24.9973 40.9091C24.5718 40.9091 24.1475 40.7977 23.775 40.5816L19.8826 38.2788C19.3019 37.954 19.5856 37.8386 19.7765 37.771C20.5521 37.5019 20.7085 37.4396 21.5371 36.9703C21.6233 36.9212 21.7373 36.9398 21.8261 36.9928L24.817 38.768C24.9257 38.8277 25.0782 38.8277 25.1776 38.768L36.8377 32.0384C36.9464 31.9761 37.0153 31.8515 37.0153 31.7229V18.2665C37.0153 18.1352 36.9451 18.0119 36.8337 17.9456L25.179 11.2214C25.0716 11.1591 24.9284 11.1591 24.8197 11.2214L13.1676 17.947C13.0549 18.0119 12.9833 18.1392 12.9833 18.2665V31.7229C12.9833 31.8515 13.0549 31.9735 13.1676 32.0345L16.3613 33.8799C18.0941 34.747 19.156 33.7261 19.156 32.7V19.4146C19.156 19.2263 19.3072 19.0792 19.4954 19.0792H20.9737C21.1579 19.0792 21.3117 19.2277 21.3117 19.4146V32.7C21.3117 35.0134 20.0523 36.3392 17.8594 36.3392C17.186 36.3392 16.6543 36.3392 15.1735 35.6087L12.1136 33.8494C11.3579 33.4133 10.8913 32.5966 10.8913 31.7229V18.2665C10.8913 17.3928 11.3593 16.5761 12.1136 16.1413L23.7737 9.40379C24.5121 8.98617 25.4918 8.98617 26.2237 9.40379L37.8824 16.1413C38.638 16.5775 39.1074 17.3928 39.1074 18.2665V31.7229C39.1074 32.5966 38.638 33.4106 37.8824 33.8494L26.2237 40.5816C25.8524 40.7977 25.4295 40.9091 24.9973 40.9091ZM34.4115 27.6422C34.4115 25.1233 32.7093 24.4525 29.1257 23.9792C25.5051 23.5006 25.1365 23.2527 25.1365 22.4055C25.1365 21.7055 25.4481 20.7708 28.1301 20.7708C30.5257 20.7708 31.4087 21.2866 31.7719 22.9013C31.8038 23.0538 31.943 23.1652 32.0994 23.1652H33.6121C33.7062 23.1652 33.7951 23.1241 33.8587 23.0578C33.9223 22.9862 33.9568 22.8947 33.9475 22.7979C33.7129 20.0165 31.8648 18.7199 28.1301 18.7199C24.8051 18.7199 22.8218 20.1225 22.8218 22.4758C22.8218 25.0278 24.7945 25.7331 27.9856 26.0487C31.8038 26.4225 32.0994 26.9807 32.0994 27.7311C32.0994 29.0343 31.0534 29.5898 28.5968 29.5898C25.5117 29.5898 24.8329 28.8155 24.6049 27.2803C24.5784 27.1159 24.4379 26.9953 24.2695 26.9953H22.7621C22.5752 26.9953 22.4254 27.1438 22.4254 27.3307C22.4254 29.2955 23.4939 31.6367 28.5968 31.6367C32.293 31.6381 34.4115 30.1837 34.4115 27.6422Z" fill="white"/>
</svg>
