<svg width="50" height="50" viewBox="0 0 50 50" fill="none" xmlns="http://www.w3.org/2000/svg">
<rect width="50" height="50" rx="10" fill="#1F2328"/>
<path d="M27.025 9.22192C18.3118 8.10425 10.3396 14.2614 9.22194 22.976C8.10428 31.6893 14.2601 39.6601 22.9747 40.7791C31.6893 41.8967 39.6628 35.7396 40.7778 27.025C41.8968 18.3117 35.741 10.3409 27.025 9.22192ZM30.3011 19.1457C30.0059 19.1496 29.7238 19.2685 29.5149 19.4771L23.6111 25.381L23.204 24.974L22.3515 24.1215C28.1706 18.3197 29.2193 18.264 30.3011 19.1457ZM23.8537 25.5905L29.7403 19.7038C29.8175 19.6229 29.9103 19.5586 30.0132 19.5148C30.1161 19.471 30.2268 19.4486 30.3386 19.4491C30.4504 19.4496 30.561 19.4728 30.6635 19.5175C30.766 19.5621 30.8583 19.6272 30.9348 19.7087C31.0113 19.7903 31.0703 19.8866 31.1083 19.9917C31.1463 20.0969 31.1625 20.2087 31.1558 20.3203C31.1491 20.4319 31.1197 20.541 31.0694 20.6408C31.0191 20.7407 30.949 20.8292 30.8633 20.9011L24.6333 26.3701L23.8537 25.5905ZM24.2912 26.5106L22.8328 26.8261C22.8154 26.8301 22.7972 26.828 22.781 26.8203C22.7649 26.8126 22.7519 26.7997 22.744 26.7837C22.7351 26.7684 22.7316 26.7506 22.734 26.7331C22.7364 26.7155 22.7446 26.6993 22.7572 26.6869L23.6124 25.8318L24.2912 26.5106ZM20.5749 25.9021L22.1288 24.3482L23.2942 25.5123L20.6704 26.0771C20.6485 26.0827 20.6254 26.0807 20.6048 26.0713C20.5843 26.0618 20.5677 26.0456 20.5577 26.0254C20.5453 26.0061 20.5403 25.9831 20.5435 25.9605C20.5466 25.9379 20.5578 25.9171 20.5749 25.9021ZM15.741 33.9339C15.7277 33.9327 15.7149 33.9289 15.7031 33.9228C15.6913 33.9166 15.6808 33.9081 15.6723 33.8979C15.6638 33.8877 15.6574 33.8759 15.6535 33.8631C15.6496 33.8504 15.6482 33.8371 15.6495 33.8238C15.652 33.8008 15.6623 33.7793 15.6787 33.7628H15.6813L16.9356 32.5086L18.5557 34.1288L15.741 33.9339ZM18.9561 32.2686C18.896 32.2997 18.848 32.35 18.8199 32.4116C18.7918 32.4731 18.7851 32.5423 18.801 32.6081L19.0701 33.7549C19.0788 33.7902 19.0756 33.8274 19.0611 33.8608C19.0465 33.8941 19.0214 33.9218 18.9896 33.9394C18.9577 33.9571 18.921 33.9637 18.885 33.9584C18.849 33.9531 18.8157 33.9361 18.7904 33.91H18.7864L17.5481 32.6717L17.1583 32.2806L22.146 27.2981L24.559 26.7771L25.7178 27.9359C24.0539 29.3969 21.7788 30.854 18.9561 32.2686ZM25.9551 27.7237H25.9525L24.8401 26.6114L31.0701 21.1424C31.1277 21.0912 31.1806 21.0348 31.2279 20.974C31.0317 22.7572 28.5378 25.2763 25.9551 27.7237ZM30.8036 19.1589L30.7997 19.1563C30.3613 18.7158 30.1095 18.1234 30.0967 17.5022C30.0839 16.8809 30.3109 16.2786 30.7307 15.8204C31.1505 15.3622 31.7306 15.0834 32.3507 15.042C32.9707 15.0005 33.5828 15.1996 34.0598 15.5978L31.9253 17.7363C31.9105 17.751 31.8987 17.7685 31.8907 17.7877C31.8827 17.8069 31.8786 17.8275 31.8786 17.8484C31.8786 17.8692 31.8827 17.8898 31.8907 17.909C31.8987 17.9283 31.9105 17.9457 31.9253 17.9604L33.5786 19.6137C33.1267 19.838 32.6157 19.9148 32.1179 19.8332C31.62 19.7516 31.1603 19.5158 30.8036 19.1589ZM34.2216 19.1589C34.1119 19.2672 33.9916 19.3641 33.8623 19.448L32.2607 17.8477L34.2932 15.8152C35.1696 16.7698 35.1377 18.2441 34.2216 19.1589ZM34.089 17.1119C34.0571 17.135 34.0332 17.1674 34.0207 17.2047C34.0081 17.242 34.0074 17.2823 34.0187 17.32C34.066 17.4156 34.0844 17.5229 34.072 17.6287C34.0595 17.7346 34.0166 17.8346 33.9485 17.9166C33.9333 17.9358 33.922 17.9577 33.9153 17.9812C33.9086 18.0047 33.9067 18.0293 33.9095 18.0536C33.9123 18.0778 33.9199 18.1013 33.9318 18.1226C33.9438 18.1439 33.9598 18.1627 33.979 18.1778C34.0108 18.2028 34.0499 18.2167 34.0903 18.2176C34.1172 18.2174 34.1436 18.2113 34.1679 18.1999C34.1921 18.1884 34.2136 18.1719 34.2309 18.1513C34.3448 18.0145 34.4163 17.8475 34.4368 17.6706C34.4573 17.4938 34.4258 17.3149 34.3462 17.1556C34.3323 17.1357 34.3146 17.1187 34.2941 17.1057C34.2736 17.0927 34.2507 17.0839 34.2268 17.0798C34.2028 17.0758 34.1783 17.0765 34.1547 17.082C34.131 17.0875 34.1087 17.0977 34.089 17.1119Z" fill="white"/>
</svg>
