<svg width="50" height="50" viewBox="0 0 50 50" fill="none" xmlns="http://www.w3.org/2000/svg">
<rect width="50" height="50" rx="10" fill="#1F2328"/>
<path d="M27.9564 25.0053C27.9564 25.7913 27.6443 26.5451 27.0887 27.101C26.533 27.6569 25.7794 27.9693 24.9934 27.9697C24.2072 27.9697 23.4532 27.6574 22.8972 27.1014C22.3413 26.5455 22.029 25.7915 22.029 25.0053C22.029 24.2193 22.3411 23.4655 22.8968 22.9096C23.4524 22.3537 24.2061 22.0413 24.992 22.0409C25.7783 22.0409 26.5323 22.3532 27.0882 22.9092C27.6441 23.4651 27.9564 24.2191 27.9564 25.0053ZM31.467 10.833C29.6826 10.833 27.3479 12.1057 24.9867 14.3091C22.6269 12.1176 20.2909 10.8595 18.5078 10.8595C17.9642 10.8595 17.4697 10.9828 17.0415 11.228C15.2186 12.2794 14.8102 15.5553 15.7515 19.6665C11.7159 20.9127 9.09091 22.9053 9.09091 25.0053C9.09091 27.1133 11.7292 29.1112 15.7767 30.3481C14.8434 34.4752 15.2597 37.7564 17.0866 38.8064C17.5108 39.0544 18.0013 39.171 18.5475 39.171C20.3307 39.171 22.6667 37.8983 25.0278 35.6922C27.3877 37.885 29.7237 39.1432 31.5068 39.1432C32.0504 39.1432 32.5449 39.0239 32.9731 38.7786C34.7947 37.7286 35.2044 34.4527 34.2631 30.3402C38.2841 29.1045 40.9091 27.108 40.9091 25.0053C40.9091 22.8973 38.2708 20.8994 34.2233 19.6598C35.1566 15.5367 34.7403 12.2528 32.9135 11.2015C32.4919 10.9576 32.0027 10.8343 31.467 10.833ZM31.4604 12.278V12.286C31.7587 12.286 31.9987 12.3443 32.2002 12.4544C33.0831 12.9608 33.4663 14.8871 33.168 17.365C33.0964 17.9748 32.9797 18.6178 32.8366 19.2741C31.5638 18.9612 30.1771 18.7212 28.7174 18.5661C27.8424 17.3663 26.9343 16.2765 26.0195 15.322C28.1301 13.3598 30.1121 12.2833 31.4617 12.2794L31.4604 12.278ZM18.5078 12.3045C19.8494 12.3045 21.8407 13.3758 23.9566 15.3273C23.0472 16.2818 22.1403 17.365 21.2786 18.5648C19.811 18.7199 18.4229 18.9598 17.1515 19.278C17.003 18.6284 16.893 18 16.8148 17.3955C16.5099 14.9189 16.8864 12.9939 17.7614 12.4809C18.0133 12.3616 18.2917 12.3112 18.5078 12.3045ZM24.9801 16.3481C25.5833 16.9686 26.1866 17.6633 26.7831 18.4216C26.1998 18.3951 25.6032 18.3765 25 18.3765C24.3902 18.3765 23.7869 18.3898 23.197 18.4216C23.7803 17.6633 24.3835 16.9699 24.9801 16.3481ZM25 19.8295C25.9811 19.8295 26.9581 19.8746 27.9193 19.9528C28.4576 20.7244 28.9826 21.5477 29.4877 22.4188C29.9809 23.2672 30.429 24.129 30.8373 24.9987C30.429 25.867 29.9809 26.7354 29.4943 27.5839C28.9905 28.4589 28.4695 29.2915 27.9299 30.0631C26.9648 30.1466 25.9864 30.193 25 30.193C24.0189 30.193 23.0419 30.1466 22.0807 30.0697C21.5424 29.2981 21.0174 28.4735 20.5123 27.6038C20.0191 26.7553 19.571 25.8936 19.1627 25.0239C19.5644 24.1528 20.0191 23.2831 20.5057 22.4333C21.0095 21.5583 21.5305 20.7284 22.0701 19.9568C23.0352 19.872 24.0136 19.8269 25 19.8269V19.8295ZM20.1809 20.1663C19.8627 20.6661 19.5445 21.1778 19.2475 21.7042C18.9492 22.2212 18.6708 22.7409 18.4057 23.2606C18.0544 22.3909 17.7561 21.5239 17.5095 20.6794C18.358 20.4805 19.2528 20.3028 20.1809 20.1663ZM29.8059 20.1663C30.7273 20.3028 31.6155 20.4712 32.4653 20.6794C32.2267 21.5172 31.9284 22.379 31.5903 23.242C31.3252 22.725 31.0468 22.204 30.7419 21.6856C30.4436 21.1659 30.1254 20.6595 29.8072 20.1663H29.8059ZM33.8667 21.0612C34.5083 21.26 35.1182 21.4814 35.6896 21.7214C37.9858 22.7025 39.4706 23.9858 39.4706 25.004C39.464 26.0222 37.9792 27.3108 35.683 28.2852C35.1261 28.5239 34.5163 28.7386 33.8866 28.9388C33.5153 27.6687 33.0301 26.3456 32.4282 24.9881C33.0248 23.6398 33.5021 22.3233 33.8667 21.0585V21.0612ZM16.1081 21.0665C16.4767 22.3392 16.9633 23.661 17.5665 25.0172C16.9699 26.3655 16.49 27.682 16.1267 28.9468C15.485 28.7479 14.8752 28.5252 14.3104 28.2839C12.0142 27.3068 10.5294 26.0222 10.5294 25.004C10.5294 23.9858 12.0142 22.6945 14.3104 21.7214C14.8672 21.4828 15.4771 21.268 16.1081 21.0665ZM31.5903 26.7407C31.9417 27.6117 32.24 28.4801 32.4866 29.3233C31.6381 29.5314 30.7419 29.7078 29.8138 29.8403C30.132 29.3432 30.4502 28.8301 30.7485 28.3051C31.0468 27.7881 31.3239 27.2604 31.5903 26.7407ZM18.4057 26.7672C18.6708 27.2869 18.9492 27.8053 19.2542 28.325C19.5591 28.842 19.8706 29.3485 20.1888 29.8403C19.2674 29.7051 18.3792 29.5354 17.5294 29.3286C17.768 28.4934 18.0676 27.629 18.4044 26.7659L18.4057 26.7672ZM32.8485 30.7273C32.997 31.3809 33.1136 32.0106 33.1852 32.6138C33.4902 35.0903 33.1136 37.0153 32.2386 37.5297C32.0438 37.6491 31.7905 37.6994 31.4922 37.6994C30.1506 37.6994 28.1593 36.6295 26.0434 34.6767C26.9528 33.7222 27.8597 32.6403 28.7214 31.4419C30.189 31.2854 31.5771 31.0455 32.8485 30.7273ZM17.1648 30.7405C18.4375 31.0508 19.8242 31.2907 21.2839 31.4458C22.1589 32.6456 23.067 33.7354 23.9818 34.6886C21.8672 36.6547 19.8826 37.7313 18.533 37.7313C18.2413 37.7246 17.9947 37.665 17.7998 37.5563C16.9169 37.0525 16.5337 35.1248 16.832 32.647C16.9036 32.0371 17.0216 31.3955 17.1648 30.7405ZM23.2102 31.589C23.7936 31.6155 24.3902 31.6341 24.9934 31.6341C25.6032 31.6341 26.2064 31.6208 26.7964 31.589C26.2131 32.3473 25.6099 33.0407 25.0133 33.6638C24.41 33.0407 23.8068 32.3473 23.2102 31.589Z" fill="white"/>
</svg>
