<svg width="50" height="50" viewBox="0 0 50 50" fill="none" xmlns="http://www.w3.org/2000/svg">
<rect width="50" height="50" rx="10" fill="#1F2328"/>
<path d="M39.9994 30H25.4435C24.8977 30 24.5338 30.3636 24.5338 30.9091V33.6364C24.5338 34.1818 24.8977 34.5455 25.4435 34.5455H39.9994C40.5452 34.5455 40.9091 34.1818 40.9091 33.6364V30.9091C40.9091 30.3636 40.5452 30 39.9994 30Z" fill="white"/>
<path d="M17.4378 23L9.43206 31C8.97719 31.4545 8.97719 32.0909 9.43206 32.4545L11.0696 34.0909C11.5245 34.5455 12.1613 34.5455 12.5252 34.0909L20.5309 26.0909C20.9858 25.6364 20.9858 25 20.5309 24.6364L18.8934 23C18.5295 22.6364 17.8017 22.6364 17.4378 23Z" fill="white"/>
<path d="M12.5252 16.6364L20.5309 24.6364C20.9858 25.0909 20.9858 25.7273 20.5309 26.0909L18.8934 27.7273C18.4385 28.1818 17.8017 28.1818 17.4378 27.7273L9.43206 19.7273C8.97719 19.2727 8.97719 18.6364 9.43206 18.2727L11.0696 16.6364C11.4335 16.2727 12.1613 16.2727 12.5252 16.6364Z" fill="white"/>
</svg>
