<svg width="50" height="50" viewBox="0 0 50 50" fill="none" xmlns="http://www.w3.org/2000/svg">
<rect width="50" height="50" rx="10" fill="#1F2328"/>
<path d="M39.7839 12.4612L33.2319 9.2882C32.4735 8.92093 31.5671 9.07585 30.9719 9.67449L9.52317 29.3444C8.94625 29.8734 8.94692 30.787 9.5246 31.3152L11.2766 32.9172C11.7489 33.3491 12.4602 33.3808 12.9686 32.9929L38.7979 13.2843C39.6645 12.6232 40.9091 13.2448 40.9091 14.3388V14.2623C40.9091 13.4944 40.4717 12.7943 39.7839 12.4612Z" fill="white"/>
<path d="M39.7839 37.5388L33.2319 40.7118C32.4735 41.0791 31.5671 40.9241 30.9719 40.3255L9.52317 20.6556C8.94625 20.1265 8.94692 19.213 9.5246 18.6848L11.2766 17.0828C11.7489 16.6509 12.4602 16.6191 12.9686 17.0071L38.7979 36.7156C39.6645 37.3768 40.9091 36.7552 40.9091 35.6612V35.7377C40.9091 36.5056 40.4717 37.2056 39.7839 37.5388Z" fill="white"/>
<path d="M33.2319 40.7118C32.4735 41.0791 31.5671 40.9241 30.9719 40.3255C31.7054 41.0632 32.9594 40.5407 32.9594 39.4975V10.5025C32.9594 9.45926 31.7054 8.93682 30.9719 9.67449C31.5671 9.07585 32.4735 8.92093 33.2319 9.2882L39.783 12.4562C40.4713 12.7892 40.9091 13.4895 40.9091 14.2577V35.7424C40.9091 36.5106 40.4713 37.2109 39.783 37.5438L33.2319 40.7118Z" fill="white"/>
</svg>
