<svg width="50" height="50" viewBox="0 0 50 50" fill="none" xmlns="http://www.w3.org/2000/svg">
<rect width="50" height="50" rx="10" fill="#1F2328"/>
<path d="M38.521 33.6148L25.5685 40.9094V35.2278L33.6386 30.808L38.521 33.6148ZM39.407 32.8159V17.5604L34.6672 20.284V30.0893L39.407 32.8159ZM11.479 33.6148L24.4315 40.9094V35.2278L16.3614 30.808L11.479 33.6148ZM10.593 32.8159V17.5604L15.3327 20.284V30.0893L10.593 32.8159ZM11.1475 16.5733L24.4315 9.09077V14.5839L15.9212 19.2444L15.8564 19.2815L11.1475 16.5733ZM38.8526 16.5733L25.5685 9.09077V14.5839L34.0788 19.2445L34.1436 19.2816L38.8526 16.5733ZM24.4316 33.9355L16.4697 29.5773V20.9411L24.4314 25.5182L24.4316 33.9355ZM25.5685 33.9355L33.53 29.5773V20.9411L25.5685 25.5182V33.9355ZM17.0089 19.9416L25.0014 15.5646L32.9943 19.9416L25.0016 24.5373L17.0089 19.9416Z" fill="white"/>
</svg>
